<svg width="22" height="21" viewBox="0 0 22 21" fill="none" xmlns="http://www.w3.org/2000/svg">
<path fill-rule="evenodd" clip-rule="evenodd" d="M5.00689 20.8981C4.75695 21.0267 4.45582 21.0031 4.22901 20.8371C4.00221 20.671 3.88867 20.3911 3.93572 20.114L5.01389 13.813C5.05345 13.5714 4.97241 13.3256 4.79686 13.1549L0.225137 8.73022C0.0219399 8.5329 -0.0512198 8.23713 0.0365612 7.96783C0.124342 7.69854 0.357754 7.50269 0.638202 7.46303L6.93919 6.54588C7.18189 6.51232 7.39192 6.36005 7.49928 6.13982L10.2997 0.412916C10.4249 0.160025 10.6827 0 10.9648 0C11.247 0 11.5048 0.160025 11.6299 0.412916L14.4304 6.13982C14.5415 6.35688 14.7496 6.50778 14.9905 6.54588L21.2915 7.46303C21.5855 7.47635 21.8439 7.66218 21.95 7.9367C22.0562 8.21121 21.9901 8.52253 21.7815 8.73022L17.2098 13.1829C17.0368 13.355 16.9584 13.6005 16.9998 13.841L18.0779 20.142C18.1213 20.4196 18.0057 20.6982 17.7784 20.8635C17.5512 21.0287 17.2505 21.0529 16.9998 20.9261L11.3499 17.9507C11.137 17.8297 10.8787 17.8192 10.6568 17.9227L5.00689 20.8981Z" fill="#0000FF"/>
</svg>
