<svg width="22" height="21" viewBox="0 0 22 21" fill="none" xmlns="http://www.w3.org/2000/svg">
<path d="M5.99956 13.9817L5.99959 13.9817L6.00075 13.9746C6.09313 13.4104 5.90391 12.8366 5.494 12.438L5.49231 12.4364L1.29854 8.37745L7.08042 7.53586C7.65123 7.4555 8.14497 7.09685 8.39784 6.57866C8.39795 6.57845 8.39806 6.57823 8.39816 6.57801L10.9648 1.32918L13.532 6.57911L13.5402 6.59543C13.7969 7.09694 14.2778 7.44558 14.8342 7.5336L14.8342 7.53368L14.8464 7.53545L20.7002 8.3875L16.5121 12.4666L16.5121 12.4665L16.5046 12.4739C16.1007 12.8756 15.9177 13.449 16.0142 14.0105L17.0046 19.7985L11.8271 17.0718C11.336 16.7997 10.7439 16.7788 10.2343 17.0163C10.2196 17.0231 10.2051 17.0303 10.1908 17.0379L5.00973 19.7664L5.99956 13.9817Z" stroke="black" stroke-width="2" stroke-linecap="round" stroke-linejoin="round"/>
</svg>
